<svg id="Hexels SVG Export" xmlns="http://www.w3.org/2000/svg" version="1.1" xmlns:xlink="http://www.w3.org/1999/xlink" viewBox="-1 -1 17 16" xml:space="preserve">
<g id="Root" transform="matrix(1.000, 0.000, 0.000, 1.000, 0.000, -0.000)">
<g id="Layer 2" transform="matrix(1.000, 0.000, 0.000, 1.000, 0.000, -0.000)" display="none">
<path d="M 0.50,-0.52 L 6.51,-0.52 L 6.52,1.51 L 5.48,1.52 L 5.49,0.52 L 1.51,0.52 L 1.52,1.52 L 0.52,1.51 L 0.52,5.51 L -0.52,5.51 L -0.52,0.49 L 0.48,0.48 L 0.50,-0.52  z
" style="fill:#fafaff;fill-opacity:1.00"/>
<path d="M 9.49,-0.52 L 15.50,-0.52 L 15.52,0.48 L 16.52,0.50 L 16.52,6.50 L 15.52,6.52 L 15.52,7.52 L 14.52,7.51 L 14.52,9.51 L 13.52,9.51 L 13.52,11.51 L 12.52,11.51 L 12.52,13.51 L 11.52,13.52 L 11.52,14.52 L 10.52,14.52 L 10.50,15.52 L 5.49,15.52 L 5.48,14.52 L 4.48,14.52 L 4.48,13.52 L 3.48,13.51 L 3.48,11.51 L 2.48,11.51 L 2.48,9.51 L 1.48,9.51 L 1.48,7.51 L 0.48,7.51 L 0.48,5.49 L 1.52,5.48 L 1.52,6.48 L 2.52,6.49 L 2.52,8.48 L 4.52,8.49 L 4.52,11.49 L 5.52,11.48 L 5.52,12.48 L 6.52,12.49 L 6.51,14.48 L 9.49,14.48 L 9.48,13.48 L 10.48,13.48 L 10.48,12.48 L 11.48,12.49 L 11.48,10.49 L 12.48,10.49 L 12.48,8.49 L 13.48,8.49 L 13.48,6.49 L 14.48,6.48 L 14.48,5.48 L 15.48,5.49 L 15.48,1.51 L 14.48,1.52 L 14.49,0.52 L 10.51,0.52 L 10.52,1.52 L 9.48,1.51 L 9.49,-0.52  z
" style="fill:#fafaff;fill-opacity:1.00"/>
<path d="M 6.48,1.49 L 7.52,1.48 L 7.52,2.48 L 8.48,2.48 L 8.48,1.48 L 9.52,1.49 L 9.51,3.52 L 6.49,3.52 L 6.48,1.49  z
" style="fill:#fafaff;fill-opacity:1.00"/>
</g>
<g id="Layer 2" transform="matrix(1.000, 0.000, 0.000, 1.000, 0.000, -0.000)">
<g id="Hexels">
<path d="M 1.49,0.48 L 5.51,0.48 L 5.52,2.51 L 4.48,2.52 L 4.49,1.52 L 2.51,1.52 L 2.52,2.52 L 1.52,2.51 L 1.52,4.49 L 2.52,4.48 L 2.51,5.48 L 4.51,5.48 L 4.52,6.52 L 3.52,6.51 L 3.52,8.51 L 2.48,8.51 L 2.48,6.51 L 1.48,6.52 L 1.48,5.52 L 0.48,5.51 L 0.48,1.49 L 1.48,1.48 L 1.49,0.48  z
" style="fill:#7a008b;fill-opacity:1.00"/>
<path d="M 10.49,0.48 L 14.51,0.48 L 14.52,1.48 L 15.52,1.49 L 15.52,5.51 L 14.52,5.52 L 14.52,6.52 L 13.52,6.51 L 13.52,8.51 L 12.48,8.51 L 12.48,6.51 L 11.48,6.52 L 11.49,5.48 L 13.49,5.48 L 13.48,4.48 L 14.48,4.49 L 14.48,2.51 L 13.48,2.52 L 13.49,1.52 L 11.51,1.52 L 11.52,2.52 L 10.48,2.51 L 10.49,0.48  z
" style="fill:#7a008b;fill-opacity:1.00"/>
<polygon points="2.50,1.50 3.50,1.50 3.50,2.50 2.50,2.50 " style="fill:#ff8400;;stroke:#ff8400;stroke-width:0.03;stroke-opacity:1.00" />
<path d="M 3.48,1.48 L 4.52,1.49 L 4.52,4.52 L 1.49,4.52 L 1.48,3.48 L 2.48,3.48 L 2.48,2.48 L 3.48,2.48 L 3.48,1.48  z
" style="fill:#ffad00;fill-opacity:1.00"/>
<polygon points="5.50,1.50 6.50,1.50 6.50,2.50 5.50,2.50 " style="fill:#a100b5;;stroke:#a100b5;stroke-width:0.03;stroke-opacity:1.00" />
<polygon points="9.50,1.50 10.50,1.50 10.50,2.50 9.50,2.50 " style="fill:#a700bd;;stroke:#a700bd;stroke-width:0.03;stroke-opacity:1.00" />
<polygon points="11.50,1.50 12.50,1.50 12.50,2.50 11.50,2.50 " style="fill:#ff8400;;stroke:#ff8400;stroke-width:0.03;stroke-opacity:1.00" />
<path d="M 12.48,1.48 L 13.52,1.49 L 13.52,4.52 L 10.49,4.52 L 10.48,3.48 L 11.48,3.48 L 11.48,2.48 L 12.48,2.48 L 12.48,1.48  z
" style="fill:#ffad00;fill-opacity:1.00"/>
<polygon points="1.50,2.50 2.50,2.50 2.50,3.50 1.50,3.50 " style="fill:#ff8400;;stroke:#ff8400;stroke-width:0.03;stroke-opacity:1.00" />
<path d="M 4.48,2.49 L 5.52,2.49 L 5.52,4.51 L 4.48,4.51 L 4.48,2.49  z
" style="fill:#ff8400;fill-opacity:1.00"/>
<path d="M 5.48,2.49 L 6.52,2.48 L 6.51,3.48 L 9.49,3.48 L 9.48,2.48 L 10.52,2.49 L 10.52,4.49 L 11.52,4.48 L 11.51,5.52 L 9.49,5.52 L 9.49,4.52 L 6.51,4.52 L 6.51,5.52 L 4.49,5.52 L 4.48,4.48 L 5.48,4.49 L 5.48,2.49  z
" style="fill:#7a008b;fill-opacity:1.00"/>
<polygon points="10.50,2.50 11.50,2.50 11.50,3.50 10.50,3.50 " style="fill:#ff8400;;stroke:#ff8400;stroke-width:0.03;stroke-opacity:1.00" />
<path d="M 13.48,2.49 L 14.52,2.49 L 14.52,4.51 L 13.48,4.51 L 13.48,2.49  z
" style="fill:#ff8400;fill-opacity:1.00"/>
<path d="M 2.49,4.48 L 4.51,4.48 L 4.51,5.52 L 2.49,5.52 L 2.49,4.48  z
" style="fill:#ff8400;fill-opacity:1.00"/>
<path d="M 6.49,4.48 L 9.51,4.48 L 9.51,5.48 L 11.51,5.48 L 11.52,6.48 L 12.52,6.49 L 12.52,9.51 L 11.48,9.51 L 11.48,7.52 L 9.52,7.52 L 9.52,9.48 L 11.52,9.48 L 11.52,11.51 L 10.52,11.52 L 10.52,12.52 L 9.52,12.52 L 9.52,13.52 L 8.48,13.52 L 8.48,12.52 L 7.52,12.52 L 7.52,13.52 L 6.48,13.52 L 6.48,12.52 L 5.48,12.52 L 5.48,11.52 L 4.48,11.51 L 4.48,9.51 L 3.48,9.51 L 3.48,6.49 L 4.48,6.48 L 4.49,5.48 L 6.49,5.48 L 6.49,4.48  z
M 6.48,9.48 L 6.48,7.52 L 4.52,7.52 L 4.52,9.48 L 6.48,9.48  z
" style="fill:#a100b5;fill-opacity:1.00"/>
<path d="M 11.49,4.48 L 13.51,4.48 L 13.51,5.52 L 11.49,5.52 L 11.49,4.48  z
" style="fill:#ff8400;fill-opacity:1.00"/>
<polygon points="4.50,7.50 5.50,7.50 5.50,8.50 4.50,8.50 " style="fill:#fafaff;;stroke:#fafaff;stroke-width:0.03;stroke-opacity:1.00" />
<path d="M 5.48,7.48 L 6.52,7.49 L 6.52,9.52 L 4.49,9.52 L 4.48,8.48 L 5.48,8.48 L 5.48,7.48  z
" style="fill:#0b0b10;fill-opacity:1.00"/>
<polygon points="9.50,7.50 10.50,7.50 10.50,8.50 9.50,8.50 " style="fill:#fafaff;;stroke:#fafaff;stroke-width:0.03;stroke-opacity:1.00" />
<path d="M 10.48,7.48 L 11.52,7.49 L 11.52,9.52 L 9.49,9.52 L 9.48,8.48 L 10.48,8.48 L 10.48,7.48  z
" style="fill:#0b0b10;fill-opacity:1.00"/>
<polygon points="3.50,9.50 4.50,9.50 4.50,10.50 3.50,10.50 " style="fill:#7a008b;;stroke:#7a008b;stroke-width:0.03;stroke-opacity:1.00" />
<polygon points="11.50,9.50 12.50,9.50 12.50,10.50 11.50,10.50 " style="fill:#7a008b;;stroke:#7a008b;stroke-width:0.03;stroke-opacity:1.00" />
<polygon points="4.50,11.50 5.50,11.50 5.50,12.50 4.50,12.50 " style="fill:#7a008b;;stroke:#7a008b;stroke-width:0.03;stroke-opacity:1.00" />
<polygon points="10.50,11.50 11.50,11.50 11.50,12.50 10.50,12.50 " style="fill:#7a008b;;stroke:#7a008b;stroke-width:0.03;stroke-opacity:1.00" />
<polygon points="5.50,12.50 6.50,12.50 6.50,13.50 5.50,13.50 " style="fill:#7a008b;;stroke:#7a008b;stroke-width:0.03;stroke-opacity:1.00" />
<polygon points="7.50,12.50 8.50,12.50 8.50,13.50 7.50,13.50 " style="fill:#0b0b10;;stroke:#0b0b10;stroke-width:0.03;stroke-opacity:1.00" />
<polygon points="9.50,12.50 10.50,12.50 10.50,13.50 9.50,13.50 " style="fill:#7a008b;;stroke:#7a008b;stroke-width:0.03;stroke-opacity:1.00" />
<path d="M 6.49,13.48 L 9.51,13.48 L 9.51,14.52 L 6.49,14.52 L 6.49,13.48  z
" style="fill:#7a008b;fill-opacity:1.00"/>
</g>
<g id="Outlines">
<polygon points="2.50, 0.50  2.50, 0.11, 1.50, 0.11,  1.50, 0.50" style="fill:#0b0b10;fill-opacity:1.00"/>
<polygon points="3.50, 0.50  3.50, 0.11, 2.50, 0.11,  2.50, 0.50" style="fill:#0b0b10;fill-opacity:1.00"/>
<polygon points="4.50, 0.50  4.50, 0.11, 3.50, 0.11,  3.50, 0.50" style="fill:#0b0b10;fill-opacity:1.00"/>
<polygon points="5.50, 0.50  5.50, 0.11, 4.50, 0.11,  4.50, 0.50" style="fill:#0b0b10;fill-opacity:1.00"/>
<polygon points="11.50, 0.50  11.50, 0.11, 10.50, 0.11,  10.50, 0.50" style="fill:#0b0b10;fill-opacity:1.00"/>
<polygon points="12.50, 0.50  12.50, 0.11, 11.50, 0.11,  11.50, 0.50" style="fill:#0b0b10;fill-opacity:1.00"/>
<polygon points="13.50, 0.50  13.50, 0.11, 12.50, 0.11,  12.50, 0.50" style="fill:#0b0b10;fill-opacity:1.00"/>
<polygon points="14.50, 0.50  14.50, 0.11, 13.50, 0.11,  13.50, 0.50" style="fill:#0b0b10;fill-opacity:1.00"/>
<polygon points="1.50, 0.50  1.11, 0.50, 1.11, 1.50,  1.50, 1.50" style="fill:#0b0b10;fill-opacity:1.00"/>
<polygon points="1.50, 1.50  1.50, 1.11, 0.50, 1.11,  0.50, 1.50" style="fill:#0b0b10;fill-opacity:1.00"/>
<polygon points="1.50, 0.50  1.50, 0.89, 2.50, 0.89,  2.50, 0.50" style="fill:#a100b5;fill-opacity:1.00"/>
<polygon points="1.50, 1.50  1.89, 1.50, 1.89, 0.50,  1.50, 0.50" style="fill:#a100b5;fill-opacity:1.00"/>
<polygon points="2.50, 0.50  2.50, 0.89, 3.50, 0.89,  3.50, 0.50" style="fill:#a100b5;fill-opacity:1.00"/>
<polygon points="3.50, 0.50  3.50, 0.89, 4.50, 0.89,  4.50, 0.50" style="fill:#a100b5;fill-opacity:1.00"/>
<polygon points="4.50, 0.50  4.50, 0.89, 5.50, 0.89,  5.50, 0.50" style="fill:#a100b5;fill-opacity:1.00"/>
<polygon points="5.50, 0.50  5.11, 0.50, 5.11, 1.50,  5.50, 1.50" style="fill:#a700bd;fill-opacity:1.00"/>
<polygon points="5.50, 1.50  5.89, 1.50, 5.89, 0.50,  5.50, 0.50" style="fill:#0b0b10;fill-opacity:1.00"/>
<polygon points="10.50, 0.50  10.11, 0.50, 10.11, 1.50,  10.50, 1.50" style="fill:#0b0b10;fill-opacity:1.00"/>
<polygon points="10.50, 0.50  10.50, 0.89, 11.50, 0.89,  11.50, 0.50" style="fill:#a700bd;fill-opacity:1.00"/>
<polygon points="10.50, 1.50  10.89, 1.50, 10.89, 0.50,  10.50, 0.50" style="fill:#a100b5;fill-opacity:1.00"/>
<polygon points="11.50, 0.50  11.50, 0.89, 12.50, 0.89,  12.50, 0.50" style="fill:#a700bd;fill-opacity:1.00"/>
<polygon points="12.50, 0.50  12.50, 0.89, 13.50, 0.89,  13.50, 0.50" style="fill:#a700bd;fill-opacity:1.00"/>
<polygon points="13.50, 0.50  13.50, 0.89, 14.50, 0.89,  14.50, 0.50" style="fill:#a700bd;fill-opacity:1.00"/>
<polygon points="14.50, 0.50  14.11, 0.50, 14.11, 1.50,  14.50, 1.50" style="fill:#a700bd;fill-opacity:1.00"/>
<polygon points="15.50, 1.50  15.50, 1.11, 14.50, 1.11,  14.50, 1.50" style="fill:#0b0b10;fill-opacity:1.00"/>
<polygon points="14.50, 1.50  14.89, 1.50, 14.89, 0.50,  14.50, 0.50" style="fill:#0b0b10;fill-opacity:1.00"/>
<polygon points="0.50, 1.50  0.11, 1.50, 0.11, 2.50,  0.50, 2.50" style="fill:#0b0b10;fill-opacity:1.00"/>
<polygon points="0.50, 1.50  0.50, 1.89, 1.50, 1.89,  1.50, 1.50" style="fill:#a100b5;fill-opacity:1.00"/>
<polygon points="0.50, 2.50  0.89, 2.50, 0.89, 1.50,  0.50, 1.50" style="fill:#a100b5;fill-opacity:1.00"/>
<polygon points="2.50, 1.50  2.11, 1.50, 2.11, 2.11,  2.50, 2.50" style="fill:#e85100;fill-opacity:1.00"/>
<polygon points="2.50, 2.50  2.11, 2.11, 1.50, 2.11,  1.50, 2.50" style="fill:#e85100;fill-opacity:1.00"/>
<polygon points="5.50, 2.50  5.50, 2.11, 4.89, 2.11,  4.50, 2.50" style="fill:#e85100;fill-opacity:1.00"/>
<polygon points="4.50, 2.50  4.89, 2.11, 4.89, 1.50,  4.50, 1.50" style="fill:#e85100;fill-opacity:1.00"/>
<polygon points="6.50, 1.50  6.11, 1.50, 6.11, 2.50,  6.50, 2.50" style="fill:#0b0b10;fill-opacity:1.00"/>
<polygon points="9.50, 2.50  9.89, 2.50, 9.89, 1.50,  9.50, 1.50" style="fill:#0b0b10;fill-opacity:1.00"/>
<polygon points="11.50, 1.50  11.11, 1.50, 11.11, 2.11,  11.50, 2.50" style="fill:#e85100;fill-opacity:1.00"/>
<polygon points="11.50, 2.50  11.11, 2.11, 10.50, 2.11,  10.50, 2.50" style="fill:#e85100;fill-opacity:1.00"/>
<polygon points="14.50, 2.50  14.50, 2.11, 13.50, 2.11,  13.50, 2.50" style="fill:#e85100;fill-opacity:1.00"/>
<polygon points="13.50, 2.50  13.89, 2.50, 13.89, 1.50,  13.50, 1.50" style="fill:#e85100;fill-opacity:1.00"/>
<polygon points="14.50, 1.50  14.50, 1.89, 15.50, 1.89,  15.50, 1.50" style="fill:#a700bd;fill-opacity:1.00"/>
<polygon points="15.50, 1.50  15.11, 1.50, 15.11, 2.50,  15.50, 2.50" style="fill:#a700bd;fill-opacity:1.00"/>
<polygon points="15.50, 2.50  15.89, 2.50, 15.89, 1.50,  15.50, 1.50" style="fill:#0b0b10;fill-opacity:1.00"/>
<polygon points="0.50, 2.50  0.11, 2.50, 0.11, 3.50,  0.50, 3.50" style="fill:#0b0b10;fill-opacity:1.00"/>
<polygon points="0.50, 3.50  0.89, 3.50, 0.89, 2.50,  0.50, 2.50" style="fill:#a100b5;fill-opacity:1.00"/>
<polygon points="6.50, 2.50  6.11, 2.50, 6.11, 3.50,  6.50, 3.50" style="fill:#a700bd;fill-opacity:1.00"/>
<polygon points="6.50, 3.50  6.89, 3.50, 6.89, 2.50,  6.50, 2.50" style="fill:#0b0b10;fill-opacity:1.00"/>
<polygon points="9.50, 2.50  9.11, 2.50, 9.11, 3.50,  9.50, 3.50" style="fill:#0b0b10;fill-opacity:1.00"/>
<polygon points="9.50, 3.50  9.89, 3.50, 9.89, 2.50,  9.50, 2.50" style="fill:#a100b5;fill-opacity:1.00"/>
<polygon points="15.50, 2.50  15.11, 2.50, 15.11, 3.50,  15.50, 3.50" style="fill:#a700bd;fill-opacity:1.00"/>
<polygon points="15.50, 3.50  15.89, 3.50, 15.89, 2.50,  15.50, 2.50" style="fill:#0b0b10;fill-opacity:1.00"/>
<polygon points="0.50, 3.50  0.11, 3.50, 0.11, 4.50,  0.50, 4.50" style="fill:#0b0b10;fill-opacity:1.00"/>
<polygon points="0.50, 4.50  0.89, 4.50, 0.89, 3.50,  0.50, 3.50" style="fill:#a100b5;fill-opacity:1.00"/>
<polygon points="6.50, 3.50  6.50, 3.89, 7.50, 3.89,  7.50, 3.50" style="fill:#0b0b10;fill-opacity:1.00"/>
<polygon points="6.50, 4.50  6.89, 4.50, 6.89, 3.50,  6.50, 3.50" style="fill:#680076;fill-opacity:1.00"/>
<polygon points="7.50, 3.50  7.50, 3.89, 8.50, 3.89,  8.50, 3.50" style="fill:#0b0b10;fill-opacity:1.00"/>
<polygon points="8.50, 3.50  8.50, 3.89, 9.50, 3.89,  9.50, 3.50" style="fill:#0b0b10;fill-opacity:1.00"/>
<polygon points="9.50, 3.50  9.11, 3.50, 9.11, 4.50,  9.50, 4.50" style="fill:#680076;fill-opacity:1.00"/>
<polygon points="15.50, 3.50  15.11, 3.50, 15.11, 4.50,  15.50, 4.50" style="fill:#a700bd;fill-opacity:1.00"/>
<polygon points="15.50, 4.50  15.89, 4.50, 15.89, 3.50,  15.50, 3.50" style="fill:#0b0b10;fill-opacity:1.00"/>
<polygon points="0.50, 4.50  0.11, 4.50, 0.11, 5.50,  0.50, 5.50" style="fill:#0b0b10;fill-opacity:1.00"/>
<polygon points="0.50, 5.50  0.89, 5.50, 0.89, 4.50,  0.50, 4.50" style="fill:#a100b5;fill-opacity:1.00"/>
<polygon points="1.50, 4.50  1.50, 4.89, 2.11, 4.89,  2.50, 4.50" style="fill:#e85100;fill-opacity:1.00"/>
<polygon points="2.50, 4.50  2.11, 4.89, 2.11, 5.50,  2.50, 5.50" style="fill:#e85100;fill-opacity:1.00"/>
<polygon points="4.50, 4.50  4.89, 4.89, 5.50, 4.89,  5.50, 4.50" style="fill:#e85100;fill-opacity:1.00"/>
<polygon points="4.50, 5.50  4.89, 5.50, 4.89, 4.89,  4.50, 4.50" style="fill:#e85100;fill-opacity:1.00"/>
<polygon points="6.50, 4.50  6.11, 4.50, 6.11, 5.11,  6.50, 5.50" style="fill:#680076;fill-opacity:1.00"/>
<polygon points="6.50, 5.50  6.11, 5.11, 5.50, 5.11,  5.50, 5.50" style="fill:#680076;fill-opacity:1.00"/>
<polygon points="6.50, 4.50  6.50, 4.89, 7.50, 4.89,  7.50, 4.50" style="fill:#680076;fill-opacity:1.00"/>
<polygon points="8.50, 4.50  8.50, 4.89, 9.50, 4.89,  9.50, 4.50" style="fill:#680076;fill-opacity:1.00"/>
<polygon points="10.50, 5.50  10.50, 5.11, 9.89, 5.11,  9.50, 5.50" style="fill:#680076;fill-opacity:1.00"/>
<polygon points="9.50, 5.50  9.89, 5.11, 9.89, 4.50,  9.50, 4.50" style="fill:#680076;fill-opacity:1.00"/>
<polygon points="10.50, 4.50  10.50, 4.89, 11.50, 4.89,  11.50, 4.50" style="fill:#e85100;fill-opacity:1.00"/>
<polygon points="13.50, 4.50  13.50, 4.89, 14.50, 4.89,  14.50, 4.50" style="fill:#ff8400;fill-opacity:1.00"/>
<polygon points="13.50, 5.50  13.89, 5.50, 13.89, 4.50,  13.50, 4.50" style="fill:#e85100;fill-opacity:1.00"/>
<polygon points="15.50, 4.50  15.11, 4.50, 15.11, 5.11,  15.50, 5.50" style="fill:#680076;fill-opacity:1.00"/>
<polygon points="15.50, 5.50  15.11, 5.11, 14.50, 5.11,  14.50, 5.50" style="fill:#680076;fill-opacity:1.00"/>
<polygon points="15.50, 5.50  15.89, 5.50, 15.89, 4.50,  15.50, 4.50" style="fill:#0b0b10;fill-opacity:1.00"/>
<polygon points="0.50, 5.50  0.50, 5.89, 1.50, 5.89,  1.50, 5.50" style="fill:#0b0b10;fill-opacity:1.00"/>
<polygon points="1.50, 5.50  1.11, 5.50, 1.11, 6.89,  1.50, 6.50" style="fill:#0b0b10;fill-opacity:1.00"/>
<polygon points="2.50, 6.50  2.50, 6.11, 1.50, 6.11,  1.50, 6.50" style="fill:#680076;fill-opacity:1.00"/>
<polygon points="4.50, 6.50  4.50, 6.11, 3.50, 6.11,  3.50, 6.50" style="fill:#680076;fill-opacity:1.00"/>
<polygon points="12.50, 6.50  12.50, 6.11, 11.50, 6.11,  11.50, 6.50" style="fill:#680076;fill-opacity:1.00"/>
<polygon points="14.50, 6.50  14.50, 6.11, 13.50, 6.11,  13.50, 6.50" style="fill:#680076;fill-opacity:1.00"/>
<polygon points="14.50, 5.50  14.50, 5.89, 15.50, 5.89,  15.50, 5.50" style="fill:#0b0b10;fill-opacity:1.00"/>
<polygon points="14.50, 6.50  14.89, 6.89, 14.89, 5.50,  14.50, 5.50" style="fill:#0b0b10;fill-opacity:1.00"/>
<polygon points="1.50, 6.50  1.11, 6.89, 2.50, 6.89,  2.50, 6.50" style="fill:#0b0b10;fill-opacity:1.00"/>
<polygon points="2.50, 7.50  2.89, 7.50, 2.89, 6.50,  2.50, 6.50" style="fill:#0b0b10;fill-opacity:1.00"/>
<polygon points="5.50, 7.50  5.50, 7.11, 4.50, 7.11,  4.50, 7.50" style="fill:#0b0b10;fill-opacity:1.00"/>
<polygon points="6.50, 7.50  6.50, 7.11, 5.50, 7.11,  5.50, 7.50" style="fill:#0b0b10;fill-opacity:1.00"/>
<polygon points="10.50, 7.50  10.50, 7.11, 9.50, 7.11,  9.50, 7.50" style="fill:#0b0b10;fill-opacity:1.00"/>
<polygon points="11.50, 7.50  11.50, 7.11, 10.50, 7.11,  10.50, 7.50" style="fill:#0b0b10;fill-opacity:1.00"/>
<polygon points="13.50, 6.50  13.11, 6.50, 13.11, 7.50,  13.50, 7.50" style="fill:#0b0b10;fill-opacity:1.00"/>
<polygon points="13.50, 6.50  13.50, 6.89, 14.89, 6.89,  14.50, 6.50" style="fill:#0b0b10;fill-opacity:1.00"/>
<polygon points="2.50, 8.50  2.89, 8.50, 2.89, 7.50,  2.50, 7.50" style="fill:#0b0b10;fill-opacity:1.00"/>
<polygon points="4.50, 7.50  4.11, 7.50, 4.11, 8.50,  4.50, 8.50" style="fill:#0b0b10;fill-opacity:1.00"/>
<polygon points="4.50, 7.50  4.89, 7.89, 5.50, 7.89,  5.50, 7.50" style="fill:#fafaff;fill-opacity:1.00"/>
<polygon points="4.50, 8.50  4.89, 8.50, 4.89, 7.89,  4.50, 7.50" style="fill:#fafaff;fill-opacity:1.00"/>
<polygon points="5.50, 8.50  5.89, 8.50, 5.89, 7.50,  5.50, 7.50" style="fill:#fafaff;fill-opacity:1.00"/>
<polygon points="6.50, 8.50  6.89, 8.50, 6.89, 7.50,  6.50, 7.50" style="fill:#0b0b10;fill-opacity:1.00"/>
<polygon points="9.50, 7.50  9.11, 7.50, 9.11, 8.50,  9.50, 8.50" style="fill:#0b0b10;fill-opacity:1.00"/>
<polygon points="9.50, 7.50  9.50, 7.89, 10.50, 7.89,  10.50, 7.50" style="fill:#fafaff;fill-opacity:1.00"/>
<polygon points="9.50, 8.50  9.89, 8.50, 9.89, 7.50,  9.50, 7.50" style="fill:#fafaff;fill-opacity:1.00"/>
<polygon points="10.50, 8.50  10.89, 8.50, 10.89, 7.50,  10.50, 7.50" style="fill:#fafaff;fill-opacity:1.00"/>
<polygon points="11.50, 8.50  11.89, 8.50, 11.89, 7.50,  11.50, 7.50" style="fill:#0b0b10;fill-opacity:1.00"/>
<polygon points="13.50, 7.50  13.11, 7.50, 13.11, 8.50,  13.50, 8.50" style="fill:#0b0b10;fill-opacity:1.00"/>
<polygon points="2.50, 8.50  2.50, 8.89, 3.50, 8.89,  3.50, 8.50" style="fill:#0b0b10;fill-opacity:1.00"/>
<polygon points="3.50, 8.50  3.11, 8.50, 3.11, 9.50,  3.50, 9.50" style="fill:#0b0b10;fill-opacity:1.00"/>
<polygon points="4.50, 8.50  4.11, 8.50, 4.11, 9.50,  4.50, 9.50" style="fill:#0b0b10;fill-opacity:1.00"/>
<polygon points="4.50, 8.50  4.50, 8.89, 5.50, 8.89,  5.50, 8.50" style="fill:#fafaff;fill-opacity:1.00"/>
<polygon points="4.50, 9.50  4.89, 9.50, 4.89, 8.50,  4.50, 8.50" style="fill:#0b0b10;fill-opacity:1.00"/>
<polygon points="6.50, 9.50  6.89, 9.50, 6.89, 8.50,  6.50, 8.50" style="fill:#0b0b10;fill-opacity:1.00"/>
<polygon points="9.50, 8.50  9.11, 8.50, 9.11, 9.50,  9.50, 9.50" style="fill:#0b0b10;fill-opacity:1.00"/>
<polygon points="9.50, 8.50  9.50, 8.89, 10.50, 8.89,  10.50, 8.50" style="fill:#fafaff;fill-opacity:1.00"/>
<polygon points="9.50, 9.50  9.89, 9.50, 9.89, 8.50,  9.50, 8.50" style="fill:#0b0b10;fill-opacity:1.00"/>
<polygon points="11.50, 9.50  11.89, 9.50, 11.89, 8.50,  11.50, 8.50" style="fill:#0b0b10;fill-opacity:1.00"/>
<polygon points="12.50, 8.50  12.50, 8.89, 13.50, 8.89,  13.50, 8.50" style="fill:#0b0b10;fill-opacity:1.00"/>
<polygon points="12.50, 9.50  12.89, 9.50, 12.89, 8.50,  12.50, 8.50" style="fill:#0b0b10;fill-opacity:1.00"/>
<polygon points="3.50, 9.50  3.11, 9.50, 3.11, 10.50,  3.50, 10.50" style="fill:#0b0b10;fill-opacity:1.00"/>
<polygon points="4.50, 9.50  4.11, 9.50, 4.11, 10.50,  4.50, 10.50" style="fill:#a100b5;fill-opacity:1.00"/>
<polygon points="4.50, 9.50  4.50, 9.89, 5.50, 9.89,  5.50, 9.50" style="fill:#0b0b10;fill-opacity:1.00"/>
<polygon points="5.50, 9.50  5.50, 9.89, 6.50, 9.89,  6.50, 9.50" style="fill:#0b0b10;fill-opacity:1.00"/>
<polygon points="9.50, 9.50  9.50, 9.89, 10.50, 9.89,  10.50, 9.50" style="fill:#0b0b10;fill-opacity:1.00"/>
<polygon points="10.50, 9.50  10.50, 9.89, 11.50, 9.89,  11.50, 9.50" style="fill:#0b0b10;fill-opacity:1.00"/>
<polygon points="11.50, 10.50  11.89, 10.50, 11.89, 9.50,  11.50, 9.50" style="fill:#a100b5;fill-opacity:1.00"/>
<polygon points="12.50, 10.50  12.89, 10.50, 12.89, 9.50,  12.50, 9.50" style="fill:#0b0b10;fill-opacity:1.00"/>
<polygon points="3.50, 10.50  3.50, 10.89, 4.50, 10.89,  4.50, 10.50" style="fill:#0b0b10;fill-opacity:1.00"/>
<polygon points="4.50, 10.50  4.11, 10.50, 4.11, 11.50,  4.50, 11.50" style="fill:#0b0b10;fill-opacity:1.00"/>
<polygon points="4.50, 11.50  4.89, 11.50, 4.89, 10.50,  4.50, 10.50" style="fill:#7a008b;fill-opacity:1.00"/>
<polygon points="11.50, 10.50  11.11, 10.50, 11.11, 11.50,  11.50, 11.50" style="fill:#7a008b;fill-opacity:1.00"/>
<polygon points="11.50, 10.50  11.50, 10.89, 12.50, 10.89,  12.50, 10.50" style="fill:#0b0b10;fill-opacity:1.00"/>
<polygon points="11.50, 11.50  11.89, 11.50, 11.89, 10.50,  11.50, 10.50" style="fill:#0b0b10;fill-opacity:1.00"/>
<polygon points="4.50, 11.50  4.11, 11.50, 4.11, 12.50,  4.50, 12.50" style="fill:#0b0b10;fill-opacity:1.00"/>
<polygon points="5.50, 11.50  5.11, 11.50, 5.11, 12.50,  5.50, 12.50" style="fill:#a100b5;fill-opacity:1.00"/>
<polygon points="6.50, 12.50  6.50, 12.11, 5.50, 12.11,  5.50, 12.50" style="fill:#a100b5;fill-opacity:1.00"/>
<polygon points="10.50, 12.50  10.89, 12.50, 10.89, 11.50,  10.50, 11.50" style="fill:#a100b5;fill-opacity:1.00"/>
<polygon points="11.50, 12.50  11.89, 12.50, 11.89, 11.50,  11.50, 11.50" style="fill:#0b0b10;fill-opacity:1.00"/>
<polygon points="4.50, 12.50  4.50, 12.89, 5.50, 12.89,  5.50, 12.50" style="fill:#0b0b10;fill-opacity:1.00"/>
<polygon points="5.50, 12.50  5.11, 12.50, 5.11, 13.50,  5.50, 13.50" style="fill:#0b0b10;fill-opacity:1.00"/>
<polygon points="6.50, 12.50  6.11, 12.50, 6.11, 13.50,  6.50, 13.50" style="fill:#a100b5;fill-opacity:1.00"/>
<polygon points="7.50, 12.50  7.11, 12.50, 7.11, 13.50,  7.50, 13.50" style="fill:#0b0b10;fill-opacity:1.00"/>
<polygon points="8.50, 13.50  8.89, 13.50, 8.89, 12.50,  8.50, 12.50" style="fill:#0b0b10;fill-opacity:1.00"/>
<polygon points="9.50, 13.50  9.89, 13.50, 9.89, 12.50,  9.50, 12.50" style="fill:#a100b5;fill-opacity:1.00"/>
<polygon points="10.50, 12.50  10.50, 12.89, 11.50, 12.89,  11.50, 12.50" style="fill:#0b0b10;fill-opacity:1.00"/>
<polygon points="10.50, 13.50  10.89, 13.50, 10.89, 12.50,  10.50, 12.50" style="fill:#0b0b10;fill-opacity:1.00"/>
<polygon points="5.50, 13.50  5.50, 13.89, 6.50, 13.89,  6.50, 13.50" style="fill:#0b0b10;fill-opacity:1.00"/>
<polygon points="6.50, 13.50  6.11, 13.50, 6.11, 14.50,  6.50, 14.50" style="fill:#0b0b10;fill-opacity:1.00"/>
<polygon points="7.50, 13.50  7.50, 13.89, 8.50, 13.89,  8.50, 13.50" style="fill:#0b0b10;fill-opacity:1.00"/>
<polygon points="9.50, 13.50  9.50, 13.89, 10.50, 13.89,  10.50, 13.50" style="fill:#0b0b10;fill-opacity:1.00"/>
<polygon points="9.50, 14.50  9.89, 14.50, 9.89, 13.50,  9.50, 13.50" style="fill:#0b0b10;fill-opacity:1.00"/>
<polygon points="6.50, 14.50  6.50, 14.89, 7.50, 14.89,  7.50, 14.50" style="fill:#0b0b10;fill-opacity:1.00"/>
<polygon points="7.50, 14.50  7.50, 14.89, 8.50, 14.89,  8.50, 14.50" style="fill:#0b0b10;fill-opacity:1.00"/>
<polygon points="8.50, 14.50  8.50, 14.89, 9.50, 14.89,  9.50, 14.50" style="fill:#0b0b10;fill-opacity:1.00"/>
</g>
</g>
</g></svg>
